<svg width="39" height="22" viewBox="0 0 39 22" fill="none" xmlns="http://www.w3.org/2000/svg">
<path d="M38.5532 9.74414C38.5527 9.7436 38.5523 9.74298 38.5518 9.74245L30.5915 0.51664C29.9952 -0.174498 29.0306 -0.171926 28.437 0.522671C27.8435 1.21718 27.8458 2.34051 28.4421 3.03174L33.7866 9.22581H1.52344C0.682043 9.22581 0 10.0201 0 11C0 11.9799 0.682043 12.7742 1.52344 12.7742H33.7866L28.4422 18.9683C27.8458 19.6595 27.8435 20.7828 28.4371 21.4773C29.0307 22.172 29.9953 22.1744 30.5916 21.4834L38.5519 12.2575C38.5523 12.257 38.5527 12.2564 38.5532 12.2559C39.1499 11.5623 39.148 10.4354 38.5532 9.74414Z" fill="white"/>
</svg>
